<?xml version="1.0" encoding="iso-8859-1"?>
<!-- Generator: Adobe Illustrator 19.0.0, SVG Export Plug-In . SVG Version: 6.00 Build 0)  -->
<svg version="1.1" id="Layer_1" xmlns="http://www.w3.org/2000/svg" xmlns:xlink="http://www.w3.org/1999/xlink" x="0px" y="0px"
	 viewBox="0 0 63.991 63.991" style="enable-background:new 0 0 63.991 63.991;" xml:space="preserve">
<g>
	<g>
		<path d="M31.996,13.582c-11.579,0-21,9.421-21,21s9.421,21,21,21s21-9.421,21-21S43.575,13.582,31.996,13.582z M32.996,53.531
			v-3.036h-2v3.036c-9.677-0.507-17.442-8.036-17.949-18.036h2.949v-2h-2.949c0.507-10,8.272-17.355,17.949-17.862v2.862h2v-2.862
			c9.677,0.507,17.442,7.862,17.949,17.862h-2.949v2h2.949C50.438,45.495,42.673,53.024,32.996,53.531z"/>
	</g>
</g>
<g>
	<g>
		<path d="M60.774,3.804c-4.289-4.289-11.268-4.289-15.557,0c-0.391,0.391-0.391,1.023,0,1.414l6.365,6.364l-3.706,3.706
			c-4.081-3.365-9.244-5.457-14.88-5.68V6.495h3c0.553,0,1-0.36,1-0.913v-4c0-0.553-0.447-1.087-1-1.087h-8
			c-0.553,0-1,0.534-1,1.087v4c0,0.553,0.447,0.913,1,0.913h3v3.112c-5.636,0.223-10.799,2.316-14.88,5.68l-3.706-3.705l6.364-6.364
			c0.391-0.391,0.391-1.023,0-1.414c-4.289-4.289-11.268-4.289-15.557,0s-4.289,11.268,0,15.557
			c0.195,0.195,0.451,0.293,0.707,0.293c0.256,0,0.512-0.098,0.707-0.293l6.364-6.364l3.63,3.63c-4.7,4.548-7.63,10.914-7.63,17.955
			c0,7.798,3.59,14.771,9.203,19.36l-3.082,3.019c-1.493,1.492-1.493,3.922,0,5.414c0.747,0.747,1.729,1.12,2.709,1.12
			c0.979,0,1.957-0.371,2.699-1.114l4.532-4.457c2.779,1.067,5.791,1.658,8.94,1.658c3.42,0,6.68-0.692,9.652-1.94l4.813,4.733
			c0.746,0.746,1.727,1.119,2.707,1.119c0.98,0,1.961-0.373,2.707-1.119c1.493-1.492,1.493-3.922-0.008-5.422l-3.539-3.467
			c5.303-4.588,8.668-11.358,8.668-18.904c0-7.041-2.931-13.407-7.63-17.955l3.63-3.63l6.364,6.364
			c0.195,0.195,0.451,0.293,0.707,0.293c0.256,0,0.512-0.098,0.707-0.293C65.063,15.071,65.063,8.093,60.774,3.804z M3.964,17.2
			C1.139,13.67,1.361,8.488,4.632,5.218c1.755-1.755,4.06-2.632,6.364-2.632c1.991,0,3.981,0.654,5.618,1.964L3.964,17.2z
			 M28.996,4.495v-2h6v2H28.996z M17.117,60.961c-0.713,0.713-1.873,0.713-2.586,0c-0.713-0.713-0.713-1.873-0.007-2.578
			l3.294-3.226c1.034,0.714,2.121,1.355,3.259,1.91L17.117,60.961z M50.461,58.375c0.713,0.713,0.713,1.873,0,2.586
			c-0.712,0.713-1.872,0.714-2.592-0.006l-4.297-4.225c1.112-0.584,2.175-1.247,3.181-1.985L50.461,58.375z M54.996,34.582
			c0,12.683-10.317,23-23,23s-23-10.317-23-23s10.317-23,23-23S54.996,21.899,54.996,34.582z M60.028,17.2L47.378,4.55
			c3.53-2.825,8.711-2.603,11.982,0.668C62.631,8.488,62.853,13.67,60.028,17.2z"/>
	</g>
</g>
<g>
	<g>
		<path d="M32.996,30.724V20.495h-2v10.229c-1.721,0.447-3,1.999-3,3.858c0,1.09,0.441,2.078,1.15,2.8l-4.95,6.6l1.6,1.199
			l5.083-6.778c0.357,0.105,0.727,0.179,1.117,0.179c2.206,0,4-1.794,4-4C35.996,32.723,34.717,31.171,32.996,30.724z
			 M31.996,36.582c-1.103,0-2-0.898-2-2c0-1.103,0.897-2,2-2c1.102,0,2,0.897,2,2C33.996,35.684,33.099,36.582,31.996,36.582z"/>
	</g>
</g>
<g>
	<g>
		<rect x="34.996" y="40.582" width="2" height="2"/>
	</g>
</g>
<g>
	<g>
		<rect x="38.996" y="40.582" width="2" height="2"/>
	</g>
</g>
<g>
	<g>
		<rect x="34.996" y="44.582" width="2" height="2"/>
	</g>
</g>
<g>
	<g>
		<rect x="38.996" y="44.582" width="2" height="2"/>
	</g>
</g>
<g>
	<g>
		<rect x="42.996" y="40.582" width="2" height="2"/>
	</g>
</g>
<g>
</g>
<g>
</g>
<g>
</g>
<g>
</g>
<g>
</g>
<g>
</g>
<g>
</g>
<g>
</g>
<g>
</g>
<g>
</g>
<g>
</g>
<g>
</g>
<g>
</g>
<g>
</g>
<g>
</g>
</svg>
